<svg width="128" height="24" viewBox="0 0 128 24" fill="none" xmlns="http://www.w3.org/2000/svg">
<path d="M36.9349 18.144C36.1309 18.144 35.3449 18.048 34.5769 17.856C33.8089 17.652 33.1969 17.4 32.7409 17.1L33.6769 15.084C34.1089 15.36 34.6309 15.588 35.2429 15.768C35.8549 15.936 36.4549 16.02 37.0429 16.02C38.2309 16.02 38.8249 15.726 38.8249 15.138C38.8249 14.862 38.6629 14.664 38.3389 14.544C38.0149 14.424 37.5169 14.322 36.8449 14.238C36.0529 14.118 35.3989 13.98 34.8829 13.824C34.3669 13.668 33.9169 13.392 33.5329 12.996C33.1609 12.6 32.9749 12.036 32.9749 11.304C32.9749 10.692 33.1489 10.152 33.4969 9.684C33.8569 9.204 34.3729 8.832 35.0449 8.568C35.7289 8.304 36.5329 8.172 37.4569 8.172C38.1409 8.172 38.8189 8.25 39.4909 8.406C40.1749 8.55 40.7389 8.754 41.1829 9.018L40.2469 11.016C39.3949 10.536 38.4649 10.296 37.4569 10.296C36.8569 10.296 36.4069 10.38 36.1069 10.548C35.8069 10.716 35.6569 10.932 35.6569 11.196C35.6569 11.496 35.8189 11.706 36.1429 11.826C36.4669 11.946 36.9829 12.06 37.6909 12.168C38.4829 12.3 39.1309 12.444 39.6349 12.6C40.1389 12.744 40.5769 13.014 40.9489 13.41C41.3209 13.806 41.5069 14.358 41.5069 15.066C41.5069 15.666 41.3269 16.2 40.9669 16.668C40.6069 17.136 40.0789 17.502 39.3829 17.766C38.6989 18.018 37.8829 18.144 36.9349 18.144ZM47.3974 14.202L46.0474 15.534V18H43.2394V4.644H46.0474V12.204L50.1514 8.316H53.4994L49.4674 12.42L53.8594 18H50.4574L47.3974 14.202ZM55.0519 8.316H57.8599V18H55.0519V8.316ZM56.4559 6.966C55.9399 6.966 55.5199 6.816 55.1959 6.516C54.8719 6.216 54.7099 5.844 54.7099 5.4C54.7099 4.956 54.8719 4.584 55.1959 4.284C55.5199 3.984 55.9399 3.834 56.4559 3.834C56.9719 3.834 57.3919 3.978 57.7159 4.266C58.0399 4.554 58.2019 4.914 58.2019 5.346C58.2019 5.814 58.0399 6.204 57.7159 6.516C57.3919 6.816 56.9719 6.966 56.4559 6.966ZM60.4659 4.644H63.2739V18H60.4659V4.644ZM65.88 4.644H68.688V18H65.88V4.644ZM74.372 8.532H76.856V10.692H74.444V18H71.636V10.692H70.142V8.532H71.636V8.1C71.636 6.996 71.96 6.12 72.608 5.472C73.268 4.824 74.192 4.5 75.38 4.5C75.8 4.5 76.196 4.548 76.568 4.644C76.952 4.728 77.27 4.854 77.522 5.022L76.784 7.056C76.46 6.828 76.082 6.714 75.65 6.714C74.798 6.714 74.372 7.182 74.372 8.118V8.532ZM82.7399 18.144C81.7199 18.144 80.8019 17.934 79.9859 17.514C79.1819 17.082 78.5519 16.488 78.0959 15.732C77.6399 14.976 77.4119 14.118 77.4119 13.158C77.4119 12.198 77.6399 11.34 78.0959 10.584C78.5519 9.828 79.1819 9.24 79.9859 8.82C80.8019 8.388 81.7199 8.172 82.7399 8.172C83.7599 8.172 84.6719 8.388 85.4759 8.82C86.2799 9.24 86.9099 9.828 87.3659 10.584C87.8219 11.34 88.0499 12.198 88.0499 13.158C88.0499 14.118 87.8219 14.976 87.3659 15.732C86.9099 16.488 86.2799 17.082 85.4759 17.514C84.6719 17.934 83.7599 18.144 82.7399 18.144ZM82.7399 15.84C83.4599 15.84 84.0479 15.6 84.5039 15.12C84.9719 14.628 85.2059 13.974 85.2059 13.158C85.2059 12.342 84.9719 11.694 84.5039 11.214C84.0479 10.722 83.4599 10.476 82.7399 10.476C82.0199 10.476 81.4259 10.722 80.9579 11.214C80.4899 11.694 80.2559 12.342 80.2559 13.158C80.2559 13.974 80.4899 14.628 80.9579 15.12C81.4259 15.6 82.0199 15.84 82.7399 15.84ZM92.6089 9.594C92.9449 9.126 93.3949 8.772 93.9589 8.532C94.5349 8.292 95.1949 8.172 95.9389 8.172V10.764C95.6269 10.74 95.4169 10.728 95.3089 10.728C94.5049 10.728 93.8749 10.956 93.4189 11.412C92.9629 11.856 92.7349 12.528 92.7349 13.428V18H89.9269V8.316H92.6089V9.594ZM107.435 8.316V18H104.771V16.848C104.399 17.268 103.955 17.592 103.439 17.82C102.923 18.036 102.365 18.144 101.765 18.144C100.493 18.144 99.4848 17.778 98.7408 17.046C97.9968 16.314 97.6248 15.228 97.6248 13.788V8.316H100.433V13.374C100.433 14.934 101.087 15.714 102.395 15.714C103.067 15.714 103.607 15.498 104.015 15.066C104.423 14.622 104.627 13.968 104.627 13.104V8.316H107.435ZM122.438 8.172C123.65 8.172 124.61 8.532 125.318 9.252C126.038 9.96 126.398 11.028 126.398 12.456V18H123.59V12.888C123.59 12.12 123.428 11.55 123.104 11.178C122.792 10.794 122.342 10.602 121.754 10.602C121.094 10.602 120.572 10.818 120.188 11.25C119.804 11.67 119.612 12.3 119.612 13.14V18H116.804V12.888C116.804 11.364 116.192 10.602 114.968 10.602C114.32 10.602 113.804 10.818 113.42 11.25C113.036 11.67 112.844 12.3 112.844 13.14V18H110.036V8.316H112.718V9.432C113.078 9.024 113.516 8.712 114.032 8.496C114.56 8.28 115.136 8.172 115.76 8.172C116.444 8.172 117.062 8.31 117.614 8.586C118.166 8.85 118.61 9.24 118.946 9.756C119.342 9.252 119.84 8.862 120.44 8.586C121.052 8.31 121.718 8.172 122.438 8.172Z" fill="#00A3FF"/>
<rect y="15.9451" width="7.02439" height="7.97256" fill="#00A3FF"/>
<rect x="9.23779" y="8.72253" width="5.52439" height="14.4451" stroke="#00A3FF" stroke-width="1.5"/>
<rect x="16.9756" width="7.02439" height="23.9177" fill="#00A3FF"/>
</svg>
